Patient4_TMGait_0pt5_01_left_09_EMG.mot
version=1
nRows=30
nColumns=33
inDegrees=no
endheader
time	1LAddLong	2LGlutMax	3LGlutMed	4LIliopsoas	5LSemiMemb	6LBicFemLong	7LRecFem	8LVastMed	9LVastLat	10LGasMed	11LTibAnt	12lTibPost	13LPeroneusLong	14LSol	15LExtDigLong	16LFlexDigLong	17RAddLong	18RGlutMax	19RGlutMed	20RIliopsoas	21RSemiMemb	22RBicFemLong	23RRecFem	24RVastMed	25RVastLat	26RGasMed	27RTibAnt	28RTibPost	29RPeroneusLong	30RSol	31RExtDigLong	32RFlexDigLong
12.557	0.006561	0.99915	-0.090942	0.018463	-0.070801	-0.41916	0.34119	-0.011292	-0.10895	0.17731	-0.000763	0.027924	-0.17532	-0.034332	0.21515	-0.000305	0.002594	-0.19348	-0.15656	0.0737	-0.064545	-0.25116	0.31174	-0.04425	0.001831	-0.007782	-0.011902	-0.02533	-0.51346	-0.17883	0.000305	-0.000916
12.558	0.014801	1.0092	-0.12802	0.014191	-0.030365	-0.23392	0.31082	-0.014191	-0.1265	-0.22888	-0.005798	-0.13321	-0.22263	-0.33875	0.09613	0.007782	0.028076	-0.19928	-0.16342	0.11124	-0.039673	-0.098114	0.3122	-0.057983	0.018158	-0.034485	0.004425	-0.018616	-0.40741	-0.48996	0.00061	-0.012817
12.559	0.020905	1.0326	-0.054626	-0.001221	0.032043	-0.18372	0.31525	0.002289	-0.1091	-0.23361	0.005493	-0.046539	-0.044403	-0.71579	-0.028229	0.007477	0.018768	-0.14938	-0.079193	0.065613	-0.06134	-0.050812	0.30777	-0.063629	0.019836	-0.029144	0.060883	-0.025177	0.32516	-0.5394	-0.000305	-0.013123
12.56	0.011292	0.97916	-0.16708	0.009003	-0.025635	-0.18738	0.34531	-0.001984	-0.09491	-0.033112	0.005341	-0.006561	0.10635	-0.73502	-0.048218	0.013885	0.026703	-0.18662	-0.08255	0.061493	-0.071869	-0.097656	0.34622	-0.069733	-0.014038	-0.019073	0.059357	-0.015564	0.63629	-0.42908	-0.004272	0.00061
12.561	0.011749	0.89859	-0.24811	0.004272	-0.089111	-0.10895	0.36133	0.009918	-0.068512	0.000153	0.010986	-0.000153	0.019379	-0.46783	0.028839	0.00946	0.000458	-0.13992	-0.072937	0.011139	-0.050049	-0.083923	0.34302	-0.093231	0.005493	0.00412	0.041809	-0.056	0.80612	-0.30502	-0.001373	-0.001221
12.562	0.014801	0.87601	-0.22766	-0.005493	-0.094299	-0.036163	0.28488	-0.001678	0.052185	0.14145	0.017395	0.017853	0.12756	-0.32501	0.094452	-0.002441	0.002747	-0.1619	-0.10849	-0.00946	-0.057068	0.033722	0.35553	-0.1355	0.013123	0.003357	0.033264	-0.12909	0.13351	0.25726	-0.000916	0.003967
12.563	0.0177	0.85648	-0.07782	0.005646	-0.004425	0.10193	0.22476	0.044708	0.067902	0.17166	0.015564	0.022278	-0.18021	-0.25116	0.021667	-0.014954	0.035248	-0.13153	-0.11261	0.007477	-0.091248	0.056915	0.33569	-0.16419	0.012207	-0.012207	0.035248	-0.12222	-0.24292	0.71442	-0.00061	0.009613
12.564	0.02594	0.7988	0.082397	0	0.033264	0.21759	0.16052	0.053864	0.07019	0.44617	0.020142	0.05188	0.056	-0.17914	-0.060883	-0.005493	0.012207	-0.11917	-0.13306	-0.014954	-0.1236	-0.050201	0.30655	-0.15182	0.012817	-0.027618	0.053711	-0.006256	-0.16647	0.12833	-0.003204	-0.01297
12.565	0.014191	0.72952	0.20935	0.005798	-0.055084	0.21408	0.18997	0.00885	0.054016	0.26169	0.015717	0.0383	0.28412	0.23804	-0.10895	0.038452	-0.036621	-0.12283	-0.11414	0.002441	-0.14252	-0.13016	0.23941	-0.07431	0.030518	-0.018311	0.05661	0.1384	-0.35202	-0.23636	-0.000916	-0.014648
12.566	0.022888	0.61264	0.12558	0.017242	0.011444	0.091705	0.10407	0.019379	0.04837	-0.16342	0.028534	0.046539	0.46921	0.77225	-0.030975	0.045776	-0.059204	-0.14313	-0.17288	-0.001373	-0.094147	-0.038452	0.23086	-0.059967	0.021057	0	0.016937	0.12512	-0.3685	0.001526	-0.003357	-0.009155
12.567	0.032349	0.50629	-0.034943	0.014191	0.17853	0.056152	0.037537	0.003357	-0.067444	-0.15274	0.045776	0.032043	0.58899	0.58609	-0.057678	0.017853	-0.040894	-0.14481	-0.21927	-0.086975	-0.073395	0.007324	0.29068	-0.067596	0.005951	0.003662	-0.02533	-0.052643	-0.058746	-0.17746	-0.004578	-0.010071
12.568	0.008698	0.3891	-0.18631	0.019836	0.14084	0.1648	-0.031433	-0.000153	-0.24338	-0.093689	0.087891	-0.097809	0.59525	0.23209	-0.015411	0.009613	-0.007935	-0.17716	-0.25559	-0.066681	-0.017548	0.072174	0.3096	-0.10941	-0.006866	0.012054	0.005035	-0.18005	0.034943	-0.32898	-0.002441	0.001678
12.569	0.002136	0.39215	-0.19653	-0.007782	0.057068	0.065308	-0.040741	0.002441	-0.35309	-0.063019	0.062256	-0.060883	-0.25269	0.042572	0.07431	0.001678	0.010834	-0.18921	-0.25192	-0.046082	0.004425	0.071411	0.26886	-0.082855	-0.009613	-0.000916	0.024719	-0.079803	0.57617	0.044403	-0.001831	-0.005646
12.57	-0.001831	0.41031	-0.16571	0.011139	-0.006409	-0.096283	-0.055695	0.005798	-0.24918	-0.067749	0.035858	-0.02594	-0.28473	-0.12436	0.093994	-0.021057	0.016785	-0.17319	-0.19516	-0.08194	-0.024414	0.15045	0.29373	-0.064545	-0.007629	0.003204	0.055389	0.11017	0.36392	0.4422	0.000458	-0.009918
12.571	-0.007477	0.39902	-0.17364	-0.001221	0.029907	-0.083618	-0.092621	0.018768	-0.11673	-0.069885	-0.016785	-0.013733	0.050201	-0.1297	-0.006409	-0.004578	0.024109	-0.2005	-0.14343	0.080109	-0.002441	0.17532	0.2327	0.002136	-0.008392	0.000916	0.045776	0.075378	-0.3363	0.12299	0.002289	0.001373
12.572	-0.007629	0.36819	-0.12405	0.005035	0.040436	0.029907	-0.16968	0.018616	0.075836	-0.065002	0.006561	-0.006256	0.13748	-0.11078	-0.099945	-0.003967	0.033417	-0.17853	-0.10223	0.17899	0.03006	0.27954	0.19882	-0.002289	0.001373	-0.000305	-0.005646	0.04837	-0.4216	0.15182	-0.003357	-0.005798
12.573	-0.004272	0.30807	-0.16357	0.024567	-0.056305	0.21316	-0.20737	0.005035	0.21759	-0.10132	-0.02121	0.004883	0.63507	-0.18402	-0.17639	0.000458	0.037537	-0.18692	-0.1059	0.07431	0.010071	0.17883	0.17242	0.005188	0.01358	0.005646	-0.067444	-0.003815	-0.13977	0.45624	-0.001373	-0.00885
12.574	-0.012817	0.30731	0.059814	0.017853	-0.14008	0.18662	-0.28046	0.003967	0.13229	-0.077209	-0.019836	-0.000305	0.40817	-0.20676	-0.07843	-0.000458	-0.012817	-0.23224	-0.080566	0.052338	0.011139	0.14221	0.19012	0.0177	0.014191	0.003357	-0.06012	0.004578	-0.045013	0.59692	-0.001373	-0.003815
12.575	-0.02182	0.34912	0.18295	-0.006866	-0.10391	0.18097	-0.27878	-0.00061	0.008392	0.11353	0.014648	0.001984	-0.38193	-0.29114	-0.047302	-0.011292	-0.007019	-0.24887	-0.10635	0.02243	-0.038757	0.04837	0.17517	-0.027924	-0.001373	0.004272	0	-0.021057	-0.023651	0.22049	-0.004578	-0.003815
12.576	-0.004578	0.33707	0.03418	-0.021515	-0.079193	0.19547	-0.36926	-0.005493	0.02243	0.159	0.022888	-0.003662	-0.86716	-0.15778	-0.13412	-0.010223	0.005493	-0.25238	-0.20004	0.015259	-0.035706	0.010223	0.14832	-0.049896	0.001221	0	0.15091	-0.014648	0.014954	-0.006104	-0.003357	0.000916
12.577	0.01297	0.30716	-0.1059	0.006104	-0.01297	0.14572	-0.43793	0.002747	-0.009003	0.052795	-0.014038	-0.006561	-0.13611	0.26138	-0.098419	-0.00824	-0.006561	-0.25757	-0.2388	0.013123	-0.079041	0.046997	0.14206	-0.024261	0.020752	-0.00473	0.1976	-0.028534	-0.017242	-0.11627	-0.00061	0.006104
12.578	0.014801	0.3125	-0.089569	0.028229	0.03891	0.21729	-0.49713	0.005646	-0.010071	0.061951	-0.019684	0.001526	0.87662	0.30701	0.016479	0.004425	-0.027618	-0.31754	-0.20416	-0.001221	-0.085754	0.06546	0.093536	-0.013428	0.016937	0.005493	0.11063	-0.031433	-0.044098	-0.11246	0	0.001068
12.579	0.020905	0.3566	-0.000916	0.00351	0.075073	0.020752	-0.55328	0.004883	-0.040588	0.20508	-0.006256	-0.002136	0.001678	0.19562	0.088501	-0.005646	-0.028687	-0.28473	-0.15747	-0.024109	-0.085449	0.069275	0.12528	-0.046539	0.006256	-0.000458	0.041046	-0.032349	-0.027618	-0.12482	-0.003357	0.002136
12.58	0.029144	0.31448	0.15854	-0.005493	0.025787	-0.11658	-0.5397	-0.001678	0.02655	0.23407	0.039673	0.003204	-0.79453	0.026398	0.10788	-0.003357	0.001984	-0.24078	-0.084229	-0.015106	-0.1059	0.023041	0.13596	-0.094299	-0.004272	-0.00061	0.03067	-0.032806	-0.005798	-0.15854	0.001526	0.000153
12.581	0.00946	0.36896	0.23956	-0.015411	-0.015411	0.18326	-0.48218	-0.007782	0.048828	0.31693	0.03479	-0.00412	-0.40863	-0.2272	-0.016785	-0.016174	0.01709	-0.23575	-0.18692	-0.031128	-0.112	0.001373	0.15411	-0.067902	-0.014648	0.000153	0.030823	-0.037689	0.1152	-0.066833	-0.002289	-0.00061
12.582	0.001526	0.25238	0.18616	0.014954	-0.002441	0.27298	-0.49606	-0.002136	0.081329	0.33539	0.028076	-0.010071	0.17502	-0.27786	-0.087891	-0.016479	0.020294	-0.29205	-0.16739	0.067291	-0.08667	0.002289	0.13077	-0.088806	-0.022583	0	0.045319	-0.043335	0.22003	0.019684	-0.001526	-0.006714
12.583	0.000305	0.098419	0.070038	0.007324	0.085297	-0.011139	-0.52414	0.00473	0.12268	0.11887	-0.016174	-0.007324	0.24063	-0.20752	0.048828	-0.016479	0.020447	-0.31708	-0.12802	0.023041	-0.10071	-0.062256	0.11612	-0.068817	-0.034485	0.00061	0.039978	-0.049744	0.17166	0.088806	-0.003357	-0.013885
12.584	-0.007629	0.040131	-0.021973	-0.005646	0.12924	-0.093689	-0.49896	0.007324	0.084381	-0.03479	0.018158	-0.019073	-0.35385	-0.23193	0.074005	-0.004578	0.005798	-0.29022	-0.18265	-0.020447	-0.095825	-0.11124	0.10895	-0.059204	-0.018005	0.005646	0.037384	-0.050354	-0.12787	0.13947	-0.00412	-0.000458
12.585	0.001526	0.043793	-0.067902	-0.025635	0.061646	-0.066986	-0.40619	-0.00351	-0.055084	0.2977	0.029449	-0.009613	0.22293	0.10208	0.084991	-0.016632	0.017395	-0.23468	-0.23499	-0.000916	-0.11475	-0.13718	0.15305	-0.08606	-0.033875	0.020294	-0.009766	-0.045624	-0.4216	0.059357	-0.001068	-0.011597
12.586	0.013885	-0.023651	0.010681	-0.004578	0.007935	-0.037079	-0.36087	-0.000153	-0.13138	0.22644	0.02594	-0.006561	0.15091	0.18417	0.083466	-0.013275	0	-0.28793	-0.15671	-0.004883	-0.13596	-0.11795	0.16403	-0.055542	-0.02243	0.027771	0.000153	-0.040894	-0.65597	-0.11337	-0.002899	-0.004883
